<svg xmlns="http://www.w3.org/2000/svg" width="1600" height="1067" viewBox="0 0 1600 1067">
    <defs>
      <linearGradient id="sky" x1="0" x2="0" y1="0" y2="1">
        <stop offset="0%" stop-color="#e5e9ee"/>
        <stop offset="55%" stop-color="#d1d9df"/>
        <stop offset="100%" stop-color="#bcc6ce"/>
      </linearGradient>
      <linearGradient id="wall" x1="0" x2="0" y1="0" y2="1">
        <stop offset="0%" stop-color="#43474c"/>
        <stop offset="100%" stop-color="#22262a"/>
      </linearGradient>
      <linearGradient id="deck" x1="0" x2="1" y1="0" y2="1">
        <stop offset="0%" stop-color="#7f8994"/>
        <stop offset="54%" stop-color="#43474c"/>
        <stop offset="100%" stop-color="#22262a"/>
      </linearGradient>
      <filter id="shadow" x="-20%" y="-20%" width="140%" height="140%">
        <feDropShadow dx="0" dy="14" stdDeviation="16" flood-color="#000" flood-opacity="0.18"/>
      </filter>
    </defs>
    <rect width="1600" height="1067" fill="url(#sky)"/>
    <rect x="0" y="0" width="1600" height="392" fill="#22262a"/>
    <rect x="0" y="348" width="1600" height="62" fill="url(#wall)"/>
    <rect x="0" y="410" width="1600" height="657" fill="url(#deck)"/>
    <line x1="90" y1="410" x2="362" y2="1067" stroke="rgba(0,0,0,0.24)" stroke-width="4"/><line x1="174" y1="410" x2="446" y2="1067" stroke="rgba(0,0,0,0.24)" stroke-width="4"/><line x1="258" y1="410" x2="530" y2="1067" stroke="rgba(0,0,0,0.24)" stroke-width="4"/><line x1="342" y1="410" x2="614" y2="1067" stroke="rgba(0,0,0,0.24)" stroke-width="4"/><line x1="426" y1="410" x2="698" y2="1067" stroke="rgba(0,0,0,0.24)" stroke-width="4"/><line x1="510" y1="410" x2="782" y2="1067" stroke="rgba(0,0,0,0.24)" stroke-width="4"/><line x1="594" y1="410" x2="866" y2="1067" stroke="rgba(0,0,0,0.24)" stroke-width="4"/><line x1="678" y1="410" x2="950" y2="1067" stroke="rgba(0,0,0,0.24)" stroke-width="4"/><line x1="762" y1="410" x2="1034" y2="1067" stroke="rgba(0,0,0,0.24)" stroke-width="4"/><line x1="846" y1="410" x2="1118" y2="1067" stroke="rgba(0,0,0,0.24)" stroke-width="4"/><line x1="930" y1="410" x2="1202" y2="1067" stroke="rgba(0,0,0,0.24)" stroke-width="4"/><line x1="1014" y1="410" x2="1286" y2="1067" stroke="rgba(0,0,0,0.24)" stroke-width="4"/><line x1="1098" y1="410" x2="1370" y2="1067" stroke="rgba(0,0,0,0.24)" stroke-width="4"/><line x1="1182" y1="410" x2="1454" y2="1067" stroke="rgba(0,0,0,0.24)" stroke-width="4"/><line x1="1266" y1="410" x2="1538" y2="1067" stroke="rgba(0,0,0,0.24)" stroke-width="4"/><line x1="1350" y1="410" x2="1622" y2="1067" stroke="rgba(0,0,0,0.24)" stroke-width="4"/>
    <line x1="0" y1="460" x2="1600" y2="398" stroke="rgba(255,255,255,0.06)" stroke-width="2"/><line x1="0" y1="565" x2="1600" y2="503" stroke="rgba(255,255,255,0.06)" stroke-width="2"/><line x1="0" y1="670" x2="1600" y2="608" stroke="rgba(255,255,255,0.06)" stroke-width="2"/><line x1="0" y1="775" x2="1600" y2="713" stroke="rgba(255,255,255,0.06)" stroke-width="2"/><line x1="0" y1="880" x2="1600" y2="818" stroke="rgba(255,255,255,0.06)" stroke-width="2"/><line x1="0" y1="985" x2="1600" y2="923" stroke="rgba(255,255,255,0.06)" stroke-width="2"/>
    
        <g filter="url(#shadow)" transform="translate(84, 120)">
          <rect x="0" y="124" width="500" height="130" rx="10" fill="#ced3dc"/>
          <rect x="0" y="100" width="250" height="80" rx="12" fill="#d9dde4"/>
          <rect x="240" y="100" width="260" height="80" rx="12" fill="#d9dde4"/>
          <rect x="0" y="30" width="150" height="95" rx="12" fill="#dde2ea"/>
          <rect x="350" y="30" width="150" height="95" rx="12" fill="#dde2ea"/>
          <rect x="-28" y="35" width="30" height="210" fill="#1f2328"/>
          <rect x="498" y="35" width="30" height="210" fill="#1f2328"/>
          <rect x="35" y="235" width="24" height="100" fill="#1f2328"/>
          <rect x="430" y="235" width="24" height="100" fill="#1f2328"/>
          <rect x="172" y="70" width="80" height="80" fill="#7f8994"/>
        </g>
        <g filter="url(#shadow)" transform="translate(648, 144)">
          <rect x="0" y="105" width="420" height="120" rx="10" fill="#cfd4dd"/>
          <rect x="0" y="20" width="420" height="100" rx="12" fill="#dde2ea"/>
          <rect x="-28" y="25" width="28" height="240" fill="#1f2328"/>
          <rect x="420" y="25" width="28" height="240" fill="#1f2328"/>
          <rect x="30" y="218" width="22" height="100" fill="#1f2328"/>
          <rect x="375" y="218" width="22" height="100" fill="#1f2328"/>
        </g>
        <g filter="url(#shadow)" transform="translate(1230, 118)">
          <rect x="0" y="60" width="120" height="210" rx="6" fill="#22272b"/>
          <rect x="15" y="0" width="90" height="100" rx="8" fill="#30353a"/>
          <rect x="20" y="120" width="80" height="78" fill="#101417"/>
          <circle cx="30" cy="44" r="9" fill="#bfc6cd"/>
          <circle cx="90" cy="44" r="9" fill="#bfc6cd"/>
          <rect x="15" y="270" width="15" height="90" fill="#22272b"/>
          <rect x="90" y="270" width="15" height="90" fill="#22272b"/>
        </g>
    <rect width="1600" height="1067" fill="rgba(0,0,0,0.06)"/>
    </svg>