<svg xmlns="http://www.w3.org/2000/svg" width="1600" height="1067" viewBox="0 0 1600 1067">
    <defs>
      <linearGradient id="sky" x1="0" x2="0" y1="0" y2="1">
        <stop offset="0%" stop-color="#e5e9ee"/>
        <stop offset="55%" stop-color="#d1d9df"/>
        <stop offset="100%" stop-color="#bcc6ce"/>
      </linearGradient>
      <linearGradient id="wall" x1="0" x2="0" y1="0" y2="1">
        <stop offset="0%" stop-color="#a2a7ad"/>
        <stop offset="100%" stop-color="#6b7077"/>
      </linearGradient>
      <linearGradient id="deck" x1="0" x2="1" y1="0" y2="1">
        <stop offset="0%" stop-color="#d6dadf"/>
        <stop offset="54%" stop-color="#a2a7ad"/>
        <stop offset="100%" stop-color="#6b7077"/>
      </linearGradient>
      <filter id="shadow" x="-20%" y="-20%" width="140%" height="140%">
        <feDropShadow dx="0" dy="14" stdDeviation="16" flood-color="#000" flood-opacity="0.18"/>
      </filter>
    </defs>
    <rect width="1600" height="1067" fill="url(#sky)"/>
    <rect x="0" y="0" width="1600" height="392" fill="#6b7077"/>
    <rect x="0" y="348" width="1600" height="62" fill="url(#wall)"/>
    <rect x="0" y="410" width="1600" height="657" fill="url(#deck)"/>
    <line x1="90" y1="410" x2="326" y2="1067" stroke="rgba(0,0,0,0.24)" stroke-width="4"/><line x1="174" y1="410" x2="410" y2="1067" stroke="rgba(0,0,0,0.24)" stroke-width="4"/><line x1="258" y1="410" x2="494" y2="1067" stroke="rgba(0,0,0,0.24)" stroke-width="4"/><line x1="342" y1="410" x2="578" y2="1067" stroke="rgba(0,0,0,0.24)" stroke-width="4"/><line x1="426" y1="410" x2="662" y2="1067" stroke="rgba(0,0,0,0.24)" stroke-width="4"/><line x1="510" y1="410" x2="746" y2="1067" stroke="rgba(0,0,0,0.24)" stroke-width="4"/><line x1="594" y1="410" x2="830" y2="1067" stroke="rgba(0,0,0,0.24)" stroke-width="4"/><line x1="678" y1="410" x2="914" y2="1067" stroke="rgba(0,0,0,0.24)" stroke-width="4"/><line x1="762" y1="410" x2="998" y2="1067" stroke="rgba(0,0,0,0.24)" stroke-width="4"/><line x1="846" y1="410" x2="1082" y2="1067" stroke="rgba(0,0,0,0.24)" stroke-width="4"/><line x1="930" y1="410" x2="1166" y2="1067" stroke="rgba(0,0,0,0.24)" stroke-width="4"/><line x1="1014" y1="410" x2="1250" y2="1067" stroke="rgba(0,0,0,0.24)" stroke-width="4"/><line x1="1098" y1="410" x2="1334" y2="1067" stroke="rgba(0,0,0,0.24)" stroke-width="4"/><line x1="1182" y1="410" x2="1418" y2="1067" stroke="rgba(0,0,0,0.24)" stroke-width="4"/><line x1="1266" y1="410" x2="1502" y2="1067" stroke="rgba(0,0,0,0.24)" stroke-width="4"/><line x1="1350" y1="410" x2="1586" y2="1067" stroke="rgba(0,0,0,0.24)" stroke-width="4"/>
    <line x1="0" y1="460" x2="1600" y2="416" stroke="rgba(255,255,255,0.06)" stroke-width="2"/><line x1="0" y1="565" x2="1600" y2="521" stroke="rgba(255,255,255,0.06)" stroke-width="2"/><line x1="0" y1="670" x2="1600" y2="626" stroke="rgba(255,255,255,0.06)" stroke-width="2"/><line x1="0" y1="775" x2="1600" y2="731" stroke="rgba(255,255,255,0.06)" stroke-width="2"/><line x1="0" y1="880" x2="1600" y2="836" stroke="rgba(255,255,255,0.06)" stroke-width="2"/><line x1="0" y1="985" x2="1600" y2="941" stroke="rgba(255,255,255,0.06)" stroke-width="2"/>
    
        <g filter="url(#shadow)" transform="translate(90, 208)">
          <rect x="0" y="112" width="340" height="106" rx="12" fill="#d9dee5"/>
          <rect x="18" y="28" width="138" height="100" rx="14" fill="#edf1f4"/>
          <rect x="186" y="16" width="138" height="112" rx="14" fill="#edf1f4"/>
          <rect x="-24" y="40" width="24" height="208" fill="#25292e"/>
          <rect x="340" y="40" width="24" height="208" fill="#25292e"/>
          <rect x="40" y="208" width="16" height="86" fill="#25292e"/>
          <rect x="276" y="208" width="16" height="86" fill="#25292e"/>
        </g>
        <g filter="url(#shadow)" transform="translate(560, 132)">
          <rect x="0" y="90" width="470" height="138" rx="12" fill="#d6dbe3"/>
          <rect x="0" y="12" width="470" height="100" rx="14" fill="#e8edf1"/>
          <rect x="160" y="130" width="150" height="58" rx="8" fill="#eef1f4"/>
          <rect x="-24" y="28" width="24" height="244" fill="#23282d"/>
          <rect x="470" y="28" width="24" height="244" fill="#23282d"/>
          <rect x="38" y="228" width="18" height="106" fill="#23282d"/>
          <rect x="414" y="228" width="18" height="106" fill="#23282d"/>
        </g>
        <g filter="url(#shadow)" transform="translate(1205, 222)">
          <rect x="0" y="80" width="160" height="64" rx="8" fill="#d7dde5"/>
          <rect x="30" y="0" width="100" height="86" rx="8" fill="#eef2f4"/>
          <rect x="20" y="144" width="18" height="78" fill="#23282d"/>
          <rect x="122" y="144" width="18" height="78" fill="#23282d"/>
        </g>
    <rect width="1600" height="1067" fill="rgba(0,0,0,0.06)"/>
    </svg>