<svg xmlns="http://www.w3.org/2000/svg" width="1600" height="1067" viewBox="0 0 1600 1067">
    <defs>
      <linearGradient id="sky" x1="0" x2="0" y1="0" y2="1">
        <stop offset="0%" stop-color="#eef2f5"/>
        <stop offset="55%" stop-color="#cad3da"/>
        <stop offset="100%" stop-color="#bcc6ce"/>
      </linearGradient>
      <linearGradient id="wall" x1="0" x2="0" y1="0" y2="1">
        <stop offset="0%" stop-color="#7d7a73"/>
        <stop offset="100%" stop-color="#555149"/>
      </linearGradient>
      <linearGradient id="deck" x1="0" x2="1" y1="0" y2="1">
        <stop offset="0%" stop-color="#b9b4a8"/>
        <stop offset="54%" stop-color="#7d7a73"/>
        <stop offset="100%" stop-color="#555149"/>
      </linearGradient>
      <filter id="shadow" x="-20%" y="-20%" width="140%" height="140%">
        <feDropShadow dx="0" dy="14" stdDeviation="16" flood-color="#000" flood-opacity="0.18"/>
      </filter>
    </defs>
    <rect width="1600" height="1067" fill="url(#sky)"/>
    <rect x="0" y="0" width="1600" height="392" fill="#555149"/>
    <rect x="0" y="348" width="1600" height="62" fill="url(#wall)"/>
    <rect x="0" y="410" width="1600" height="657" fill="url(#deck)"/>
    <line x1="90" y1="410" x2="344" y2="1067" stroke="rgba(0,0,0,0.24)" stroke-width="4"/><line x1="174" y1="410" x2="428" y2="1067" stroke="rgba(0,0,0,0.24)" stroke-width="4"/><line x1="258" y1="410" x2="512" y2="1067" stroke="rgba(0,0,0,0.24)" stroke-width="4"/><line x1="342" y1="410" x2="596" y2="1067" stroke="rgba(0,0,0,0.24)" stroke-width="4"/><line x1="426" y1="410" x2="680" y2="1067" stroke="rgba(0,0,0,0.24)" stroke-width="4"/><line x1="510" y1="410" x2="764" y2="1067" stroke="rgba(0,0,0,0.24)" stroke-width="4"/><line x1="594" y1="410" x2="848" y2="1067" stroke="rgba(0,0,0,0.24)" stroke-width="4"/><line x1="678" y1="410" x2="932" y2="1067" stroke="rgba(0,0,0,0.24)" stroke-width="4"/><line x1="762" y1="410" x2="1016" y2="1067" stroke="rgba(0,0,0,0.24)" stroke-width="4"/><line x1="846" y1="410" x2="1100" y2="1067" stroke="rgba(0,0,0,0.24)" stroke-width="4"/><line x1="930" y1="410" x2="1184" y2="1067" stroke="rgba(0,0,0,0.24)" stroke-width="4"/><line x1="1014" y1="410" x2="1268" y2="1067" stroke="rgba(0,0,0,0.24)" stroke-width="4"/><line x1="1098" y1="410" x2="1352" y2="1067" stroke="rgba(0,0,0,0.24)" stroke-width="4"/><line x1="1182" y1="410" x2="1436" y2="1067" stroke="rgba(0,0,0,0.24)" stroke-width="4"/><line x1="1266" y1="410" x2="1520" y2="1067" stroke="rgba(0,0,0,0.24)" stroke-width="4"/><line x1="1350" y1="410" x2="1604" y2="1067" stroke="rgba(0,0,0,0.24)" stroke-width="4"/>
    <line x1="0" y1="460" x2="1600" y2="407" stroke="rgba(255,255,255,0.06)" stroke-width="2"/><line x1="0" y1="565" x2="1600" y2="512" stroke="rgba(255,255,255,0.06)" stroke-width="2"/><line x1="0" y1="670" x2="1600" y2="617" stroke="rgba(255,255,255,0.06)" stroke-width="2"/><line x1="0" y1="775" x2="1600" y2="722" stroke="rgba(255,255,255,0.06)" stroke-width="2"/><line x1="0" y1="880" x2="1600" y2="827" stroke="rgba(255,255,255,0.06)" stroke-width="2"/><line x1="0" y1="985" x2="1600" y2="932" stroke="rgba(255,255,255,0.06)" stroke-width="2"/>
    
        <g filter="url(#shadow)" transform="translate(114, 148)">
          <rect x="0" y="120" width="430" height="124" rx="12" fill="#d9dee6"/>
          <rect x="0" y="24" width="180" height="110" rx="14" fill="#edf1f4"/>
          <rect x="210" y="24" width="180" height="110" rx="14" fill="#edf1f4"/>
          <rect x="144" y="148" width="146" height="56" rx="8" fill="#b9b4a8"/>
          <rect x="-24" y="34" width="24" height="228" fill="#252a2e"/>
          <rect x="430" y="34" width="24" height="228" fill="#252a2e"/>
          <rect x="30" y="244" width="18" height="102" fill="#252a2e"/>
          <rect x="382" y="244" width="18" height="102" fill="#252a2e"/>
        </g>
        <g filter="url(#shadow)" transform="translate(718, 194)">
          <rect x="0" y="78" width="184" height="64" rx="8" fill="#d9dee5"/>
          <rect x="12" y="0" width="160" height="86" rx="8" fill="#eef2f5"/>
          <rect x="24" y="140" width="14" height="74" fill="#23282d"/>
          <rect x="146" y="140" width="14" height="74" fill="#23282d"/>
        </g>
        <g filter="url(#shadow)" transform="translate(1030, 116)">
          <rect x="0" y="100" width="420" height="130" rx="10" fill="#d4dbe1"/>
          <rect x="10" y="18" width="400" height="96" rx="12" fill="#e9eef1"/>
          <rect x="-24" y="30" width="24" height="246" fill="#23282d"/>
          <rect x="420" y="30" width="24" height="246" fill="#23282d"/>
          <rect x="40" y="228" width="18" height="106" fill="#23282d"/>
          <rect x="366" y="228" width="18" height="106" fill="#23282d"/>
        </g>
    <rect width="1600" height="1067" fill="rgba(0,0,0,0.06)"/>
    </svg>