<svg xmlns="http://www.w3.org/2000/svg" width="1600" height="1067" viewBox="0 0 1600 1067">
    <defs>
      <linearGradient id="sky" x1="0" x2="0" y1="0" y2="1">
        <stop offset="0%" stop-color="#eef2f5"/>
        <stop offset="55%" stop-color="#cad3da"/>
        <stop offset="100%" stop-color="#bcc6ce"/>
      </linearGradient>
      <linearGradient id="wall" x1="0" x2="0" y1="0" y2="1">
        <stop offset="0%" stop-color="#8a8a82"/>
        <stop offset="100%" stop-color="#61615f"/>
      </linearGradient>
      <linearGradient id="deck" x1="0" x2="1" y1="0" y2="1">
        <stop offset="0%" stop-color="#c0c0ad"/>
        <stop offset="54%" stop-color="#8a8a82"/>
        <stop offset="100%" stop-color="#61615f"/>
      </linearGradient>
      <filter id="shadow" x="-20%" y="-20%" width="140%" height="140%">
        <feDropShadow dx="0" dy="14" stdDeviation="16" flood-color="#000" flood-opacity="0.18"/>
      </filter>
    </defs>
    <rect width="1600" height="1067" fill="url(#sky)"/>
    <rect x="0" y="0" width="1600" height="392" fill="#61615f"/>
    <rect x="0" y="348" width="1600" height="62" fill="url(#wall)"/>
    <rect x="0" y="410" width="1600" height="657" fill="url(#deck)"/>
    <line x1="90" y1="410" x2="308" y2="1067" stroke="rgba(0,0,0,0.24)" stroke-width="4"/><line x1="174" y1="410" x2="392" y2="1067" stroke="rgba(0,0,0,0.24)" stroke-width="4"/><line x1="258" y1="410" x2="476" y2="1067" stroke="rgba(0,0,0,0.24)" stroke-width="4"/><line x1="342" y1="410" x2="560" y2="1067" stroke="rgba(0,0,0,0.24)" stroke-width="4"/><line x1="426" y1="410" x2="644" y2="1067" stroke="rgba(0,0,0,0.24)" stroke-width="4"/><line x1="510" y1="410" x2="728" y2="1067" stroke="rgba(0,0,0,0.24)" stroke-width="4"/><line x1="594" y1="410" x2="812" y2="1067" stroke="rgba(0,0,0,0.24)" stroke-width="4"/><line x1="678" y1="410" x2="896" y2="1067" stroke="rgba(0,0,0,0.24)" stroke-width="4"/><line x1="762" y1="410" x2="980" y2="1067" stroke="rgba(0,0,0,0.24)" stroke-width="4"/><line x1="846" y1="410" x2="1064" y2="1067" stroke="rgba(0,0,0,0.24)" stroke-width="4"/><line x1="930" y1="410" x2="1148" y2="1067" stroke="rgba(0,0,0,0.24)" stroke-width="4"/><line x1="1014" y1="410" x2="1232" y2="1067" stroke="rgba(0,0,0,0.24)" stroke-width="4"/><line x1="1098" y1="410" x2="1316" y2="1067" stroke="rgba(0,0,0,0.24)" stroke-width="4"/><line x1="1182" y1="410" x2="1400" y2="1067" stroke="rgba(0,0,0,0.24)" stroke-width="4"/><line x1="1266" y1="410" x2="1484" y2="1067" stroke="rgba(0,0,0,0.24)" stroke-width="4"/><line x1="1350" y1="410" x2="1568" y2="1067" stroke="rgba(0,0,0,0.24)" stroke-width="4"/>
    <line x1="0" y1="460" x2="1600" y2="425" stroke="rgba(255,255,255,0.06)" stroke-width="2"/><line x1="0" y1="565" x2="1600" y2="530" stroke="rgba(255,255,255,0.06)" stroke-width="2"/><line x1="0" y1="670" x2="1600" y2="635" stroke="rgba(255,255,255,0.06)" stroke-width="2"/><line x1="0" y1="775" x2="1600" y2="740" stroke="rgba(255,255,255,0.06)" stroke-width="2"/><line x1="0" y1="880" x2="1600" y2="845" stroke="rgba(255,255,255,0.06)" stroke-width="2"/><line x1="0" y1="985" x2="1600" y2="950" stroke="rgba(255,255,255,0.06)" stroke-width="2"/>
    
        <g filter="url(#shadow)" transform="translate(96, 126)">
          <rect x="0" y="122" width="560" height="138" rx="14" fill="#d8dde4"/>
          <rect x="16" y="32" width="210" height="108" rx="16" fill="#e6ebf0"/>
          <rect x="244" y="48" width="300" height="92" rx="16" fill="#e6ebf0"/>
          <rect x="-30" y="42" width="34" height="238" fill="#252a2e"/>
          <rect x="556" y="42" width="34" height="238" fill="#252a2e"/>
          <rect x="52" y="256" width="26" height="118" fill="#252a2e"/>
          <rect x="474" y="256" width="26" height="118" fill="#252a2e"/>
          <rect x="258" y="80" width="118" height="62" rx="8" fill="#c0c0ad"/>
        </g>
        <g filter="url(#shadow)" transform="translate(780, 188)">
          <rect x="0" y="100" width="260" height="84" rx="10" fill="#d7dde5"/>
          <rect x="22" y="0" width="96" height="110" rx="10" fill="#edf1f4"/>
          <rect x="140" y="24" width="96" height="86" rx="10" fill="#edf1f4"/>
          <rect x="38" y="184" width="18" height="92" fill="#272d31"/>
          <rect x="200" y="184" width="18" height="92" fill="#272d31"/>
        </g>
        <g filter="url(#shadow)" transform="translate(1245, 132)">
          <rect x="10" y="74" width="112" height="210" rx="8" fill="#23282d"/>
          <rect x="0" y="0" width="132" height="92" rx="8" fill="#353b42"/>
          <circle cx="40" cy="46" r="11" fill="#ccd3da"/>
          <circle cx="92" cy="46" r="11" fill="#ccd3da"/>
          <rect x="24" y="286" width="16" height="88" fill="#23282d"/>
          <rect x="92" y="286" width="16" height="88" fill="#23282d"/>
        </g>
    <rect width="1600" height="1067" fill="rgba(0,0,0,0.06)"/>
    </svg>