<svg xmlns="http://www.w3.org/2000/svg" width="280" height="280" viewBox="0 0 280 280">
    <defs>
      <linearGradient id="bg" x1="0" x2="1">
        <stop offset="0%" stop-color="#fff7ea"/>
        <stop offset="45%" stop-color="#ddd3c2"/>
        <stop offset="100%" stop-color="#b9af9e"/>
      </linearGradient>
    </defs>
    <rect width="280" height="280" fill="url(#bg)"/>
    <rect x="-20" y="-20" width="4" height="340" fill="rgba(255,255,255,0.08)" transform="rotate(7 -20 -20)"/><rect x="-8" y="-20" width="4" height="340" fill="rgba(255,255,255,0.12)" transform="rotate(7 -8 -20)"/><rect x="4" y="-20" width="4" height="340" fill="rgba(255,255,255,0.05)" transform="rotate(7 4 -20)"/><rect x="16" y="-20" width="4" height="340" fill="rgba(255,255,255,0.09)" transform="rotate(7 16 -20)"/><rect x="28" y="-20" width="4" height="340" fill="rgba(255,255,255,0.08)" transform="rotate(7 28 -20)"/><rect x="40" y="-20" width="4" height="340" fill="rgba(255,255,255,0.12)" transform="rotate(7 40 -20)"/><rect x="52" y="-20" width="4" height="340" fill="rgba(255,255,255,0.05)" transform="rotate(7 52 -20)"/><rect x="64" y="-20" width="4" height="340" fill="rgba(255,255,255,0.09)" transform="rotate(7 64 -20)"/><rect x="76" y="-20" width="4" height="340" fill="rgba(255,255,255,0.08)" transform="rotate(7 76 -20)"/><rect x="88" y="-20" width="4" height="340" fill="rgba(255,255,255,0.12)" transform="rotate(7 88 -20)"/><rect x="100" y="-20" width="4" height="340" fill="rgba(255,255,255,0.05)" transform="rotate(7 100 -20)"/><rect x="112" y="-20" width="4" height="340" fill="rgba(255,255,255,0.09)" transform="rotate(7 112 -20)"/><rect x="124" y="-20" width="4" height="340" fill="rgba(255,255,255,0.08)" transform="rotate(7 124 -20)"/><rect x="136" y="-20" width="4" height="340" fill="rgba(255,255,255,0.12)" transform="rotate(7 136 -20)"/><rect x="148" y="-20" width="4" height="340" fill="rgba(255,255,255,0.05)" transform="rotate(7 148 -20)"/><rect x="160" y="-20" width="4" height="340" fill="rgba(255,255,255,0.09)" transform="rotate(7 160 -20)"/><rect x="172" y="-20" width="4" height="340" fill="rgba(255,255,255,0.08)" transform="rotate(7 172 -20)"/><rect x="184" y="-20" width="4" height="340" fill="rgba(255,255,255,0.12)" transform="rotate(7 184 -20)"/><rect x="196" y="-20" width="4" height="340" fill="rgba(255,255,255,0.05)" transform="rotate(7 196 -20)"/><rect x="208" y="-20" width="4" height="340" fill="rgba(255,255,255,0.09)" transform="rotate(7 208 -20)"/><rect x="220" y="-20" width="4" height="340" fill="rgba(255,255,255,0.08)" transform="rotate(7 220 -20)"/><rect x="232" y="-20" width="4" height="340" fill="rgba(255,255,255,0.12)" transform="rotate(7 232 -20)"/><rect x="244" y="-20" width="4" height="340" fill="rgba(255,255,255,0.05)" transform="rotate(7 244 -20)"/><rect x="256" y="-20" width="4" height="340" fill="rgba(255,255,255,0.09)" transform="rotate(7 256 -20)"/><rect x="268" y="-20" width="4" height="340" fill="rgba(255,255,255,0.08)" transform="rotate(7 268 -20)"/><rect x="280" y="-20" width="4" height="340" fill="rgba(255,255,255,0.12)" transform="rotate(7 280 -20)"/><rect x="292" y="-20" width="4" height="340" fill="rgba(255,255,255,0.05)" transform="rotate(7 292 -20)"/><rect x="304" y="-20" width="4" height="340" fill="rgba(255,255,255,0.09)" transform="rotate(7 304 -20)"/><rect x="316" y="-20" width="4" height="340" fill="rgba(255,255,255,0.08)" transform="rotate(7 316 -20)"/>
    <ellipse cx="25" cy="20" rx="12" ry="4" fill="rgba(0,0,0,0.05)" transform="rotate(-15 25 20)"/><ellipse cx="47" cy="37" rx="16" ry="5" fill="rgba(0,0,0,0.05)" transform="rotate(-2 47 37)"/><ellipse cx="69" cy="54" rx="20" ry="6" fill="rgba(0,0,0,0.05)" transform="rotate(11 69 54)"/><ellipse cx="91" cy="71" rx="12" ry="7" fill="rgba(0,0,0,0.05)" transform="rotate(-11 91 71)"/><ellipse cx="113" cy="88" rx="16" ry="4" fill="rgba(0,0,0,0.05)" transform="rotate(2 113 88)"/><ellipse cx="135" cy="105" rx="20" ry="5" fill="rgba(0,0,0,0.05)" transform="rotate(15 135 105)"/><ellipse cx="157" cy="122" rx="12" ry="6" fill="rgba(0,0,0,0.05)" transform="rotate(-7 157 122)"/><ellipse cx="179" cy="139" rx="16" ry="7" fill="rgba(0,0,0,0.05)" transform="rotate(6 179 139)"/><ellipse cx="201" cy="156" rx="20" ry="4" fill="rgba(0,0,0,0.05)" transform="rotate(19 201 156)"/><ellipse cx="223" cy="173" rx="12" ry="5" fill="rgba(0,0,0,0.05)" transform="rotate(-3 223 173)"/><ellipse cx="245" cy="190" rx="16" ry="6" fill="rgba(0,0,0,0.05)" transform="rotate(10 245 190)"/><ellipse cx="267" cy="207" rx="20" ry="7" fill="rgba(0,0,0,0.05)" transform="rotate(-12 267 207)"/>
    <rect width="280" height="280" fill="rgba(255,255,255,0.04)"/>
    </svg>